<svg width="20" height="20" viewBox="0 0 20 20" fill="none"
    xmlns="http://www.w3.org/2000/svg">
    <g>
        <path d="M19.0432 9.97725C19.5968 9.97725 20.0507 10.4271 19.9954 10.9779C19.832 12.6067 19.2714 14.1761 18.3564 15.5456C17.2551 17.1938 15.6897 18.4785 13.8583 19.2371C12.0269 19.9957 10.0116 20.1941 8.06741 19.8074C6.12319 19.4207 4.33731 18.4661 2.9356 17.0644C1.53389 15.6627 0.579321 13.8768 0.192591 11.9326C-0.194139 9.98836 0.00434303 7.97312 0.762941 6.1417C1.52154 4.31029 2.80618 2.74495 4.45442 1.64363C5.82393 0.728554 7.39335 0.167986 9.02212 0.00456619C9.57289 -0.0506954 10.0228 0.403233 10.0228 0.956774V1.45791C10.0228 2.01145 9.57205 2.45331 9.02343 2.5269C7.89112 2.67878 6.80371 3.08745 5.8465 3.72704C4.61033 4.55302 3.64684 5.72703 3.0779 7.10059C2.50895 8.47415 2.36008 9.98558 2.65013 11.4438C2.94018 12.9019 3.65611 14.2413 4.70739 15.2926C5.75867 16.3439 7.09808 17.0598 8.55625 17.3499C10.0144 17.6399 11.5258 17.4911 12.8994 16.9221C14.273 16.3532 15.447 15.3897 16.273 14.1535C16.9125 13.1963 17.3212 12.1089 17.4731 10.9766C17.5467 10.428 17.9885 9.97725 18.5421 9.97725H19.0432Z" fill="black" fill-opacity="0.24" />
        <animateTransform attributeName="transform" type="rotate" from="0 9.97725 9.97725" to="360 9.97725 9.97725" dur="1000ms" repeatCount="indefinite"></animateTransform>
    </g>
</svg>