<svg
  width="52"
  height="40"
  viewBox="0 0 52 40"
  fill="none"
  xmlns="http://www.w3.org/2000/svg"
>
  <path
    d="M30.16 0C24.7366 0 20.1459 3.16201 17.94 7.62998C16.7659 6.84244 15.405 6.26861 13.8775 6.26861C10.0019 6.26861 6.91031 9.25649 6.695 12.9805C2.81938 14.3418 0 17.864 0 22.0984C0 27.4964 4.50125 31.8813 10.0425 31.8813H18.72C19.0938 31.8852 19.4431 31.6953 19.6341 31.3787C19.8209 31.0621 19.8209 30.6743 19.6341 30.3577C19.4431 30.0411 19.0938 29.8511 18.72 29.8551H10.0425C5.6225 29.8551 2.08 26.4002 2.08 22.0984C2.08 18.5169 4.55813 15.5014 7.93 14.5951C8.38906 14.4645 8.69781 14.045 8.6775 13.582C8.67344 13.4395 8.6775 13.3683 8.6775 13.3604C8.6775 10.5466 10.9891 8.29483 13.8775 8.29483C15.3237 8.29483 16.64 8.86075 17.5825 9.78284C17.8303 10.0163 18.1837 10.1192 18.5209 10.048C18.8622 9.97675 19.1425 9.74722 19.2725 9.43458C20.9097 5.12886 25.1591 2.02622 30.16 2.02622C36.5787 2.02622 41.7625 7.07989 41.7625 13.3287C41.7625 13.7917 41.7259 14.2468 41.665 14.7217C41.6284 15.0067 41.7178 15.2916 41.9087 15.5093C42.0997 15.7269 42.38 15.8536 42.6725 15.8615H42.7375C46.7147 15.8615 49.92 18.9839 49.92 22.8583C49.92 26.7326 46.7147 29.8551 42.7375 29.8551H33.28C32.9062 29.8511 32.5569 30.0411 32.3659 30.3577C32.1791 30.6743 32.1791 31.0621 32.3659 31.3787C32.5569 31.6953 32.9062 31.8852 33.28 31.8813H42.7375C47.84 31.8813 52 27.8288 52 22.8583C52 18.2478 48.3681 14.5832 43.7775 14.0569C43.7937 13.8115 43.8425 13.582 43.8425 13.3287C43.8425 5.98368 37.7 0 30.16 0ZM26 17.2862L25.2525 17.9827L20.0525 23.0482C19.6381 23.4519 19.6381 24.1009 20.0525 24.5046C20.4669 24.9082 21.1331 24.9082 21.5475 24.5046L24.96 21.1803V38.973C24.9559 39.3371 25.1509 39.6775 25.4759 39.8635C25.8009 40.0455 26.1991 40.0455 26.5241 39.8635C26.8491 39.6775 27.0441 39.3371 27.04 38.973V21.1803L30.4525 24.5046C30.8669 24.9082 31.5331 24.9082 31.9475 24.5046C32.3619 24.1009 32.3619 23.4519 31.9475 23.0482L26.7475 17.9827L26 17.2862Z"
    fill="black"
    fill-opacity="0.12"
  />
</svg>